<svg width="31" height="31" viewBox="0 0 31 31" fill="none" xmlns="http://www.w3.org/2000/svg">
<g clip-path="url(#clip0)">
<path d="M20.194 3.45999C15.581 -1.15301 8.07298 -1.15301 3.45998 3.45999C-1.15202 8.07399 -1.15202 15.581 3.45998 20.195C7.56798 24.302 13.966 24.742 18.576 21.535C18.673 21.994 18.895 22.432 19.252 22.789L25.97 29.507C26.949 30.484 28.531 30.484 29.505 29.507C30.483 28.529 30.483 26.947 29.505 25.972L22.787 19.252C22.432 18.898 21.993 18.675 21.534 18.578C24.743 13.967 24.303 7.56999 20.194 3.45999ZM18.073 18.074C14.629 21.518 9.02398 21.518 5.58098 18.074C2.13898 14.63 2.13898 9.02599 5.58098 5.58199C9.02398 2.13899 14.629 2.13899 18.073 5.58199C21.517 9.02599 21.517 14.63 18.073 18.074Z" fill="white"/>
</g>
<defs>
<clipPath id="clip0">
<rect width="30.239" height="30.239" fill="white"/>
</clipPath>
</defs>
</svg>
