<svg width="48" height="48" viewBox="0 0 48 48" fill="none" xmlns="http://www.w3.org/2000/svg">
<g clip-path="url(#clip0)">
<path d="M23.658 23.1218C26.8345 23.1218 29.5851 21.9825 31.8325 19.7347C34.08 17.4873 35.2192 14.7374 35.2192 11.5605C35.2192 8.38477 34.08 5.63452 31.8322 3.38635C29.5844 1.13928 26.8341 0 23.658 0C20.4811 0 17.7312 1.13928 15.4838 3.38672C13.2363 5.63416 12.0967 8.3844 12.0967 11.5605C12.0967 14.7374 13.2363 17.4877 15.4841 19.7351C17.7319 21.9822 20.4822 23.1218 23.658 23.1218V23.1218Z" fill="white"/>
<path d="M43.8871 36.9097C43.8223 35.9744 43.6912 34.9541 43.4982 33.8767C43.3033 32.7913 43.0525 31.7651 42.7522 30.8273C42.442 29.8579 42.0201 28.9006 41.4987 27.9833C40.9574 27.0311 40.3217 26.202 39.6083 25.5198C38.8623 24.806 37.949 24.2322 36.8928 23.8136C35.8403 23.3972 34.674 23.1863 33.4263 23.1863C32.9363 23.1863 32.4624 23.3873 31.5472 23.9832C30.984 24.3505 30.3252 24.7753 29.5898 25.2451C28.9611 25.6458 28.1093 26.0211 27.0571 26.361C26.0306 26.6931 24.9884 26.8616 23.9597 26.8616C22.931 26.8616 21.8892 26.6931 20.8616 26.361C19.8105 26.0215 18.9587 25.6461 18.3307 25.2455C17.6023 24.78 16.9431 24.3552 16.3715 23.9828C15.4574 23.387 14.9832 23.1859 14.4932 23.1859C13.2451 23.1859 12.0791 23.3972 11.027 23.814C9.97156 24.2318 9.05786 24.8057 8.31116 25.5201C7.59814 26.2028 6.96204 27.0315 6.42151 27.9833C5.90039 28.9006 5.47852 29.8575 5.16797 30.8276C4.86804 31.7655 4.61719 32.7913 4.42236 33.8767C4.22937 34.9526 4.09827 35.9733 4.03345 36.9108C3.96973 37.8292 3.9375 38.7825 3.9375 39.7452C3.9375 42.2509 4.73401 44.2793 6.30469 45.7753C7.85596 47.2515 9.90857 48.0004 12.4047 48.0004H35.517C38.0131 48.0004 40.0649 47.2518 41.6166 45.7753C43.1876 44.2804 43.9841 42.2516 43.9841 39.7449C43.9838 38.7777 43.9512 37.8237 43.8871 36.9097V36.9097Z" fill="white"/>
</g>
<defs>
<clipPath id="clip0">
<rect width="48" height="48.0002" fill="white"/>
</clipPath>
</defs>
</svg>
